# xmcd CD database file
#
# Track frame offsets:
#	150
#	15150
#	35184
#	41832
#	52697
#	69213
#	89314
#	107879
#	123808
#	141903
#	154515
#	169434
#
# Disc length: 2475 seconds
#
# Revision: 0
# Processed by: cddbd v1.5.2PL0 Copyright (c) Steve Scherf et al.
# Submitted via: CDex 1.51
#
DISCID=9509a90c
DTITLE=Artie and Aoril Hemphill - Listen
DYEAR=2008
DGENRE=Country
TTITLE0=All Creatures of Our God and King
TTITLE1=Abide With Me: Tis Eventide
TTITLE2=When Faith Endures
TTITLE3=As I Search the Holy Scriptures
TTITLE4=For the Beauty of the Earth
TTITLE5=I'll Go Where You Want Me to Go
TTITLE6=I Know That My Redeemer Lives
TTITLE7=Did You Think to Pray
TTITLE8=A Poor Wayfaring Man of Grief
TTITLE9=When He Comes Again
TTITLE10=Abide With Me
TTITLE11=Where Can I Turn for Peace
EXTD=YEAR: 2008
EXTT0=
EXTT1=
EXTT2=
EXTT3=
EXTT4=
EXTT5=
EXTT6=
EXTT7=
EXTT8=
EXTT9=
EXTT10=
EXTT11=
PLAYORDER=
